<?xml version="1.0" standalone="no"?>
<!DOCTYPE svg PUBLIC "-//W3C//DTD SVG 20010904//EN"
 "http://www.w3.org/TR/2001/REC-SVG-20010904/DTD/svg10.dtd">
<svg version="1.0" xmlns="http://www.w3.org/2000/svg"
 width="700.000000pt" height="700.000000pt" viewBox="0 0 700.000000 700.000000"
 preserveAspectRatio="xMidYMid meet">
<metadata>
Created by potrace 1.11, written by Peter Selinger 2001-2013
</metadata>
<g transform="translate(0.000000,700.000000) scale(0.100000,-0.100000)"
fill="#000000" stroke="none">
<path d="M2954 6984 c-28 -7 -73 -26 -100 -41 -34 -18 -262 -240 -755 -732
-645 -646 -708 -712 -738 -773 -38 -76 -46 -115 -45 -213 1 -78 26 -159 68
-221 14 -22 278 -291 586 -600 308 -309 560 -565 560 -570 0 -5 -28 -37 -63
-71 l-63 -63 -80 34 c-136 57 -284 104 -424 135 -144 31 -207 41 -360 56 -76
8 -364 8 -430 1 -154 -18 -164 -20 -265 -37 -272 -47 -701 -210 -794 -301 -52
-51 -64 -155 -26 -228 8 -16 351 -364 761 -775 l746 -746 -122 -120 c-116
-115 -123 -120 -153 -113 -141 32 -289 -17 -393 -129 -64 -69 -89 -114 -108
-196 -65 -280 155 -547 442 -535 116 5 213 47 294 128 93 94 142 245 117 364
l-11 53 121 119 120 120 746 -745 c411 -410 759 -751 773 -759 77 -39 160 -32
220 20 31 26 55 64 92 142 28 59 55 116 59 127 5 11 13 31 19 45 71 165 148
473 167 660 4 36 9 79 11 95 6 47 5 353 -1 420 -26 288 -88 542 -192 790 l-33
80 67 67 68 67 580 -578 c620 -618 620 -618 741 -640 47 -9 144 -7 194 3 14 3
54 20 90 38 58 28 134 101 762 730 384 384 712 719 729 745 84 134 89 304 11
446 -19 36 -187 212 -567 593 -297 298 -553 556 -569 572 l-29 31 342 343
c187 189 353 361 368 382 97 145 97 361 -2 504 -18 27 -197 213 -396 411 -334
334 -368 364 -433 395 -146 70 -296 64 -434 -14 -35 -20 -167 -145 -397 -375
-190 -190 -347 -345 -349 -345 -2 0 -250 246 -552 548 -302 301 -569 564 -594
583 -25 20 -70 46 -101 58 -71 28 -202 35 -275 15z m588 -1204 l469 -470 -501
-501 c-276 -275 -506 -499 -511 -497 -5 2 -219 212 -474 468 l-465 465 502
502 c277 277 504 503 506 503 2 0 215 -212 474 -470z m2207 -3216 l-504 -504
-465 464 c-256 256 -466 470 -468 476 -2 6 222 236 497 511 l502 501 471 -472
471 -471 -504 -505z"/>
</g>
</svg>
